<svg width="41" height="40" viewBox="0 0 41 40" fill="none" xmlns="http://www.w3.org/2000/svg">
<path d="M20.1618 40C17.8035 40 17.4566 36.8555 9.80347 28.948C4.43931 23.422 0 20.5087 0 16.2081C0 8.06936 10.9595 0 20.1618 0C29.3642 0 40.3237 8.06936 40.3237 16.2081C40.3237 20.5318 35.8844 23.422 30.5202 28.9711C22.8671 36.8555 22.4971 40 20.1618 40Z" fill="#3232F0"/>
<path d="M13.6648 17.7803C15.8867 17.7803 17.6879 15.9791 17.6879 13.7572C17.6879 11.5353 15.8867 9.7341 13.6648 9.7341C11.4428 9.7341 9.64163 11.5353 9.64163 13.7572C9.64163 15.9791 11.4428 17.7803 13.6648 17.7803Z" fill="white"/>
<path d="M26.6359 17.7803C28.8578 17.7803 30.659 15.9791 30.659 13.7572C30.659 11.5353 28.8578 9.7341 26.6359 9.7341C24.4139 9.7341 22.6127 11.5353 22.6127 13.7572C22.6127 15.9791 24.4139 17.7803 26.6359 17.7803Z" fill="white"/>
</svg>
